<?xml version="1.0" encoding="utf-8"?><svg xmlns="http://www.w3.org/2000/svg" xmlns:xlink="http://www.w3.org/1999/xlink"><symbol viewBox="0 0 26 22" id="icon-bluesky" xmlns="http://www.w3.org/2000/svg"><g clip-path="url(#aa)"><path d="M6.22 1.48c2.865 2.151 5.946 6.512 7.077 8.852 1.132-2.34 4.213-6.7 7.077-8.851 2.067-1.552 5.416-2.753 5.416 1.068 0 .763-.437 6.41-.694 7.327-.892 3.187-4.142 4-7.032 3.508 5.053.86 6.338 3.709 3.562 6.557-5.272 5.41-7.578-1.357-8.17-3.091-.107-.318-.158-.467-.159-.34 0-.127-.051.022-.16.34-.59 1.734-2.896 8.502-8.169 3.091-2.776-2.848-1.49-5.697 3.563-6.557-2.891.492-6.141-.321-7.033-3.508-.257-.917-.694-6.564-.694-7.327 0-3.82 3.35-2.62 5.416-1.068Z"/></g><defs><clipPath id="aa"><path d="M.844 0H25.75v22H.844z"/></clipPath></defs></symbol><symbol viewBox="0 0 32 32" id="icon-bullet-point" xmlns="http://www.w3.org/2000/svg"><path d="m10.937 17.587-4.933.436A2.014 2.014 0 0 1 4 16c0-1.117.897-2.023 2.004-2.023l4.933.436c.868 0 1.572.71 1.572 1.587a1.58 1.58 0 0 1-1.572 1.588Z" opacity=".4"/><path d="M27.5 17.507c-.078.078-.366.407-.636.68-1.578 1.71-5.699 4.509-7.855 5.365-.327.137-1.154.427-1.598.448-.423 0-.828-.098-1.213-.292a2.513 2.513 0 0 1-1.078-1.206c-.135-.35-.348-1.4-.348-1.419-.21-1.147-.325-3.012-.325-5.074 0-1.962.114-3.751.288-4.917.018-.021.23-1.324.462-1.77A2.42 2.42 0 0 1 17.334 8h.077c.577.02 1.79.526 1.79.543 2.041.857 6.064 3.52 7.682 5.29 0 0 .457.454.654.738.309.408.463.914.463 1.419 0 .564-.173 1.088-.5 1.517Z"/></symbol><symbol viewBox="0 0 20 21" id="icon-chevron-down" xmlns="http://www.w3.org/2000/svg"><path fill-rule="evenodd" d="M10 14.31a.95.95 0 0 1-.673-.279L3.613 8.317a.951.951 0 1 1 1.346-1.346L10 12.01l5.04-5.04a.951.951 0 1 1 1.348 1.346l-5.715 5.714a.95.95 0 0 1-.673.28Z" clip-rule="evenodd"/></symbol><symbol viewBox="0 0 20 20" id="icon-cook-time" xmlns="http://www.w3.org/2000/svg"><path d="M7.222 2.097a.625.625 0 1 0-.884.884.37.37 0 0 1 0 .524 1.621 1.621 0 0 0 0 2.293.625.625 0 1 0 .883-.884.37.37 0 0 1 0-.525 1.62 1.62 0 0 0 0-2.292ZM15.461 4.906a.625.625 0 1 0-.883-.884 1.62 1.62 0 0 0 0 2.293.625.625 0 0 0 .883-.885.37.37 0 0 1 0-.524ZM3.503 5.43a.625.625 0 0 0-.884.884.37.37 0 0 1 0 .524.625.625 0 0 0 .884.885 1.62 1.62 0 0 0 0-2.293Z"/><path fill-rule="evenodd" d="M10 5.218c-.955 0-1.727.774-1.727 1.728v.568c-3.156.669-5.525 3.129-5.347 6.095.013.22.195.392.416.392h13.316c.22 0 .403-.172.416-.392.178-2.966-2.192-5.426-5.347-6.095v-.568c0-.954-.774-1.728-1.727-1.728Zm.477 2.13v-.402a.478.478 0 1 0-.954 0v.401a8.45 8.45 0 0 1 .954 0Z" clip-rule="evenodd"/><path d="M2.332 15.07a.915.915 0 0 1 .585-.188h14.166c.21 0 .417.053.585.188a.84.84 0 0 1 .29.488c.07.32-.01.684-.106.972a1.974 1.974 0 0 1-1.872 1.349H4.02a1.973 1.973 0 0 1-1.872-1.349c-.096-.288-.175-.651-.106-.972a.84.84 0 0 1 .29-.488Z"/></symbol><symbol viewBox="0 0 18 16" id="icon-hamburger-menu" xmlns="http://www.w3.org/2000/svg"><path fill-rule="evenodd" d="M17 16H1a1 1 0 1 1 0-2h16a1 1 0 1 1 0 2ZM17 2H1a1 1 0 1 1 0-2h16a1 1 0 1 1 0 2ZM17 9H1a1 1 0 1 1 0-2h16a1 1 0 1 1 0 2Z" clip-rule="evenodd"/></symbol><symbol viewBox="0 0 23 22" id="icon-instagram" xmlns="http://www.w3.org/2000/svg"><path fill-rule="evenodd" d="M11.664 8.198a3.19 3.19 0 0 0-3.187 3.184 3.188 3.188 0 0 0 6.374 0 3.188 3.188 0 0 0-3.187-3.184Z" clip-rule="evenodd"/><path fill-rule="evenodd" d="M17.476 6.842c-.66 0-1.198-.535-1.198-1.191a1.198 1.198 0 0 1 2.396 0c0 .656-.538 1.191-1.198 1.191Zm-5.812 9.461a4.928 4.928 0 0 1-4.924-4.92 4.928 4.928 0 0 1 4.924-4.922 4.927 4.927 0 0 1 4.923 4.921 4.927 4.927 0 0 1-4.923 4.921ZM16.727 0H6.96C3.303 0 .844 2.573.844 6.403v9.194C.844 19.426 3.303 22 6.96 22h9.766c3.659 0 6.118-2.574 6.118-6.403V6.403c0-3.83-2.458-6.403-6.117-6.403Z" clip-rule="evenodd"/></symbol><symbol viewBox="0 0 40 42" id="icon-minimum-fuss" xmlns="http://www.w3.org/2000/svg"><path d="M22.677 8.163v8.815l-5.355 9.045H9.027a2.483 2.483 0 0 1-2.22-1.36 2.479 2.479 0 0 1 .205-2.595L18.17 6.698a2.45 2.45 0 0 1 2.785-.905 2.45 2.45 0 0 1 1.722 2.37Z"/><path d="M17.293 34.832v-8.815l5.355-9.045h8.295c.941 0 1.791.522 2.22 1.36.427.838.35 1.833-.205 2.595l-11.159 15.37a2.45 2.45 0 0 1-2.784.905 2.45 2.45 0 0 1-1.722-2.37Z" opacity=".4"/></symbol><symbol viewBox="0 0 21 20" id="icon-prep-time" xmlns="http://www.w3.org/2000/svg"><path fill-rule="evenodd" d="M13.002 13.088a.618.618 0 0 1-.859.216l-2.275-1.366a.616.616 0 0 1-.308-.534V8.463a.624.624 0 1 1 1.25 0v2.583l1.975 1.192c.3.175.4.558.217.85Zm-2.675-8.892a6.658 6.658 0 0 0-6.65 6.65 6.658 6.658 0 0 0 6.65 6.65 6.658 6.658 0 0 0 6.65-6.65 6.658 6.658 0 0 0-6.65-6.65ZM5.864 3.669a.624.624 0 1 0-.657-1.064A9.665 9.665 0 0 0 2.316 5.36a.625.625 0 0 0 1.032.705 8.422 8.422 0 0 1 2.516-2.396ZM18.349 5.36a9.613 9.613 0 0 0-2.901-2.764.626.626 0 0 0-.654 1.066 8.351 8.351 0 0 1 2.522 2.402.623.623 0 0 0 .868.164.625.625 0 0 0 .165-.868Z" clip-rule="evenodd"/></symbol><symbol viewBox="0 0 20 21" id="icon-search" xmlns="http://www.w3.org/2000/svg"><path fill-rule="evenodd" d="M3.336 9.318A5.872 5.872 0 0 1 9.2 3.453a5.872 5.872 0 0 1 5.865 5.865 5.873 5.873 0 0 1-5.865 5.866 5.873 5.873 0 0 1-5.865-5.866Zm15.412 8.716-3.832-3.823a7.492 7.492 0 0 0 1.817-4.893c0-4.153-3.38-7.532-7.532-7.532-4.153 0-7.532 3.38-7.532 7.532 0 4.153 3.38 7.532 7.532 7.532a7.477 7.477 0 0 0 4.494-1.502l3.876 3.866 1.177-1.18Z" clip-rule="evenodd"/></symbol><symbol viewBox="0 0 40 40" id="icon-search-in-seconds" xmlns="http://www.w3.org/2000/svg"><path fill-rule="evenodd" d="M9.003 26.118H4.834a1.25 1.25 0 0 0 0 2.5h4.169a1.25 1.25 0 0 0 0-2.5ZM9.623 10.185H4.834a1.25 1.25 0 0 0 0 2.5h4.789a1.25 1.25 0 0 0 0-2.5ZM4.834 20.619h2.38a1.25 1.25 0 0 0 0-2.5h-2.38a1.25 1.25 0 0 0 0 2.5ZM36.03 30.217l-2.602-2.595a1.311 1.311 0 0 0-1.852 1.858l2.602 2.594a1.311 1.311 0 1 0 1.852-1.857Z" clip-rule="evenodd"/><path fill-rule="evenodd" d="M23.1 7.542c-6.097 0-11.037 4.944-11.037 11.042 0 6.097 4.94 11.04 11.037 11.04s11.038-4.943 11.038-11.04c0-6.098-4.941-11.042-11.038-11.042Z" clip-rule="evenodd" opacity=".4"/></symbol><symbol viewBox="0 0 20 20" id="icon-servings" xmlns="http://www.w3.org/2000/svg"><path fill-rule="evenodd" d="M9.76 10.595c2.08 0 3.76-1.68 3.76-3.76.08-2.08-1.6-3.76-3.76-3.76-2.08 0-3.76 1.68-3.76 3.76s1.68 3.76 3.76 3.76ZM15.28 15.636c-.24-.88-.72-1.68-1.68-2.32-.8-.56-2.08-.96-3.84-.96-3.44 0-5.12 1.6-5.6 3.28-.16.48.08.96.48 1.2 1.44.96 3.2 1.44 5.12 1.44 1.84 0 3.6-.56 5.04-1.44.4-.24.64-.72.48-1.2Z" clip-rule="evenodd"/></symbol><symbol viewBox="0 0 20 22" id="icon-tiktok" xmlns="http://www.w3.org/2000/svg"><path d="M20 9.023h-.043c-1.977 0-3.781-.601-5.242-1.675v7.691c0 3.867-3.137 6.961-7.004 6.961A6.932 6.932 0 0 1 .75 15.04c0-3.868 3.094-7.005 6.96-7.005.345 0 .645.043.99.086v3.867a2.664 2.664 0 0 0-.99-.172c-1.76 0-3.222 1.461-3.222 3.223 0 1.762 1.461 3.223 3.223 3.223 1.762 0 3.223-1.461 3.223-3.223V0h3.78v.086c0 .3 0 .602.087.902a5.226 5.226 0 0 0 2.32 3.438c.817.558 1.805.86 2.836.86H20v3.737Z"/></symbol><symbol viewBox="0 0 24 34" id="icon-whole-food-recipes" xmlns="http://www.w3.org/2000/svg"><path d="M15.344 5.492c.058.437-.36.766-.798.712-4.09-.504-9.506 2.403-11.194 6.17-.183.41-.692.6-1.037.313-.675-.562-1.256-1.251-1.612-2.05C.336 9.819.22 8.809.847 7.96c.443-.6 1.16-.979 2.08-1.173-.612-2.475.083-4.56 1.759-5.446 1.677-.886 3.795-.285 5.498 1.614.689-.654 1.408-1.036 2.152-1.066 1.055-.044 1.817.621 2.278 1.385.382.631.622 1.405.73 2.218Z" opacity=".4"/><path d="M8.125 22.995a.822.822 0 0 1-1.05-.24c-1.71-2.354-2.92-4.538-3.167-5.82-.376-1.978-.473-5.266 4.865-8.091 5.34-2.825 8.004-.894 9.425.531.373.375.78.963 1.197 1.711.22.396.06.89-.34 1.102l-3.972 2.101a1.25 1.25 0 0 0 1.17 2.21l3.714-1.965a.818.818 0 0 1 1.154.433 45.413 45.413 0 0 1 1.671 5.68.823.823 0 0 1-.421.906l-2.996 1.585a1.25 1.25 0 1 0 1.17 2.21l1.766-.935c.513-.272 1.14.052 1.192.63.328 3.627-.156 6.686-2.129 7.62-2.824 1.659-7.719-2.146-11.617-6.563a.82.82 0 0 1 .24-1.266l2.712-1.435a1.25 1.25 0 0 0-1.169-2.21l-3.415 1.806Z"/></symbol><symbol viewBox="0 0 260 40" id="logo" xmlns="http://www.w3.org/2000/svg"><path fill-rule="evenodd" d="M8.344 7.22c-.055 1.518.231 4.206 4.253 7.385 3.39 2.679 6.385 5.649 7.281 9.425.797 3.352.292 13.044-5.892 9.548-3.023-1.709-7.157-4.946-6.902-9.762 0 0 .129-1.237-.453-1.287-.58-.05-1.975 6.433 3.988 11.568 5.962 5.134 15.494 4.198 19.324 1.178 0 0 .76-.67.997-.574.106.042-.08.72-1.04 1.432C11.412 49.84-12.194 24.033 7.34 6.681c1.422-1.264 1.05-.733 1.004.539Z" clip-rule="evenodd"/><path fill-rule="evenodd" d="M22.673 1.433c.224 1.722.185 4.787-4.042 8.61-1.055.954-2.069 1.936-2.989 2.958-.072.094-.772 1.074.258 2.253.973 1.115 7.81 7.35 6.008 13.127-.504 1.616.317.833.782.353 2.086-2.152 3.698-5.016 3.18-8.525 0 0-.276-1.398.377-1.486.654-.086 2.928 7.2-3.292 13.345a14.642 14.642 0 0 1-2.116 1.725s-.29.35.003.627c.062.059.512.196 1.086-.062C37.826 27.21 36.214 10.446 23.755.768c-1.75-1.358-1.27-.776-1.082.665Z" clip-rule="evenodd"/><path d="M45.296 26c-.294 0-.44-.113-.44-.34v-.06c0-.133.126-.34.38-.62.253-.293.38-.593.38-.9V13.72c0-.307-.127-.6-.38-.88-.254-.293-.38-.507-.38-.64v-.08c0-.213.146-.32.44-.32h3.74c.306 0 .46.107.46.32v.08c0 .133-.14.347-.42.64-.28.28-.42.573-.42.88v4.44h6.12v-4.44c0-.307-.127-.6-.38-.88-.254-.293-.38-.507-.38-.64v-.08c0-.213.146-.32.44-.32h3.74c.306 0 .46.107.46.32v.08c0 .133-.147.347-.44.64-.28.28-.42.573-.42.88v10.36c0 .307.14.607.42.9.293.28.44.487.44.62v.06c0 .227-.154.34-.46.34h-3.74c-.294 0-.44-.113-.44-.34v-.06c0-.133.126-.34.38-.62.253-.293.38-.593.38-.9v-4.6h-6.12l-.02 4.6c0 .307.14.607.42.9.293.28.44.487.44.62v.06c0 .227-.154.34-.46.34h-3.74Zm22.613-3.04c.12-.16.267-.213.44-.16.173.053.253.18.24.38-.067.693-.467 1.373-1.2 2.04-.733.653-1.687.98-2.86.98-1.413 0-2.573-.467-3.48-1.4-.907-.933-1.36-2.16-1.36-3.68 0-1.427.473-2.6 1.42-3.52.947-.933 2.087-1.4 3.42-1.4 1.213 0 2.147.287 2.8.86s.98 1.233.98 1.98c0 .613-.293 1.053-.88 1.32l-4.44 2.02c.547 1.16 1.427 1.74 2.64 1.74.507 0 .96-.107 1.36-.32.413-.227.72-.507.92-.84Zm-3.74-5.88c-.52 0-.933.253-1.24.76-.307.493-.46 1.127-.46 1.9 0 .653.067 1.227.2 1.72l2.58-1.3c.347-.173.52-.487.52-.94 0-.453-.147-.92-.44-1.4-.293-.493-.68-.74-1.16-.74ZM78.653 24c.04.307.114.553.22.74.12.187.24.307.36.36.12.04.227.093.32.16.094.067.14.16.14.28 0 .387-.64.58-1.92.58-.586 0-1.02-.073-1.3-.22-.266-.16-.426-.447-.48-.86-.52.773-1.406 1.16-2.66 1.16-1.12 0-2.026-.26-2.72-.78-.693-.52-1.04-1.267-1.04-2.24-.013-.96.327-1.707 1.02-2.24.694-.533 1.56-.8 2.6-.8.88 0 1.607.2 2.18.6l-.02-.24c-.133-1.267-.32-2.16-.56-2.68-.24-.52-.646-.78-1.22-.78-.36 0-.653.133-.88.4-.226.267-.386.56-.48.88-.093.32-.246.613-.46.88-.213.267-.486.4-.82.4-.36 0-.653-.1-.88-.3-.213-.213-.32-.487-.32-.82 0-.693.367-1.247 1.1-1.66.747-.413 1.66-.62 2.74-.62 1.294 0 2.354.367 3.18 1.1.827.733 1.314 1.733 1.46 3l.44 3.7Zm-4.44 1.32c.44 0 .794-.18 1.06-.54.267-.373.387-.793.36-1.26l-.06-.7c-.053-.573-.226-1.013-.52-1.32a1.374 1.374 0 0 0-1.06-.46c-.426 0-.78.153-1.06.46-.266.307-.4.713-.4 1.22 0 .72.154 1.333.46 1.84.32.507.727.76 1.22.76Zm6.483.68c-.307 0-.46-.113-.46-.34v-.08c0-.133.127-.34.38-.62.267-.28.4-.573.4-.88v-9.84c0-.347-.133-.66-.4-.94-.253-.28-.38-.473-.38-.58v-.08c0-.16.133-.293.4-.4l2.52-1.24c.267-.107.467-.12.6-.04.147.08.22.213.22.4v12.72c0 .307.14.6.42.88.293.28.44.487.44.62v.08c0 .227-.153.34-.46.34h-3.68Zm9.165.2c-.933 0-1.673-.293-2.22-.88-.533-.6-.8-1.46-.8-2.58v-5.18h-.94c-.266 0-.4-.133-.4-.4v-.34c0-.28.134-.42.4-.42h.5c.547 0 1.007-.18 1.38-.54.387-.36.634-.84.74-1.44.067-.32.22-.48.46-.48h.4c.294 0 .44.16.44.48l.02 1.98h2.3c.107 0 .2.04.28.12.08.08.12.18.12.3v.34c0 .12-.04.22-.12.3a.424.424 0 0 1-.28.1h-2.3v5.22c0 .387.094.7.28.94.2.227.447.34.74.34.694 0 1.147-.3 1.36-.9.12-.173.267-.24.44-.2.187.027.28.133.28.32 0 .773-.28 1.453-.84 2.04-.546.587-1.293.88-2.24.88Zm14.034-2.16c.027.32.154.62.38.9.227.28.34.493.34.64v.08c0 .227-.146.34-.44.34h-3.48c-.293 0-.44-.113-.44-.34v-.08c0-.133.12-.34.36-.62.254-.28.374-.58.36-.9l-.2-3.84c-.093-1.92-.673-2.88-1.74-2.88-.533 0-.953.2-1.26.6-.293.4-.44.933-.44 1.6v4.54c0 .307.14.6.42.88.294.28.44.487.44.62v.08c0 .227-.16.34-.48.34h-3.7c-.306 0-.46-.113-.46-.34v-.08c0-.133.14-.34.42-.62.28-.28.42-.573.42-.88v-9.96c0-.32-.153-.607-.46-.86-.293-.253-.44-.447-.44-.58v-.06c0-.2.134-.367.4-.5l2.64-1.16c.227-.093.4-.107.52-.04.134.067.2.2.2.4l-.02 6c.627-.747 1.5-1.12 2.62-1.12 1.014 0 1.874.333 2.58 1 .707.653 1.107 1.687 1.2 3.1l.26 3.74Zm11.207-7.64c.266 0 .4.107.4.32v.1c0 .173-.14.407-.42.7-.267.293-.467.58-.6.86l-3.78 8.22c-.174.387-.32.7-.44.94s-.307.553-.56.94c-.24.4-.48.713-.72.94-.24.227-.54.427-.9.6s-.734.26-1.12.26c-.854 0-1.56-.22-2.12-.66-.547-.44-.82-.933-.82-1.48 0-.36.106-.653.32-.88.213-.213.506-.32.88-.32.373 0 .666.12.88.36.213.253.353.533.42.84.066.307.166.58.3.82.146.253.333.38.56.38.613 0 1.3-.933 2.06-2.8l-3.98-8.16a3.175 3.175 0 0 0-.66-.86c-.28-.293-.42-.527-.42-.7v-.1c0-.213.14-.32.42-.32h3.74c.253 0 .38.113.38.34v.08c0 .12-.06.26-.18.42-.12.147-.2.287-.24.42-.04.133 0 .387.12.76l2.34 5.42 2.16-5.14c.133-.453.133-.767 0-.94a2.503 2.503 0 0 0-.54-.5c-.227-.173-.34-.32-.34-.44v-.08c0-.227.14-.34.42-.34h2.44Zm16.249 7.68c.174.267.38.5.62.7.254.187.454.34.6.46.147.107.22.227.22.36v.06c0 .227-.153.34-.46.34h-4.18c-.293 0-.44-.113-.44-.34v-.06c0-.12.074-.253.22-.4.16-.16.267-.3.32-.42.067-.133.034-.367-.1-.7l-2.1-3.48-2.2.04v3.44c0 .307.14.607.42.9.294.28.44.487.44.62v.06c0 .227-.16.34-.48.34h-3.76c-.293 0-.44-.113-.44-.34v-.06c0-.133.127-.34.38-.62.254-.293.38-.593.38-.9V13.72c0-.307-.126-.6-.38-.88-.253-.293-.38-.507-.38-.64v-.08c0-.213.147-.32.44-.32h4.94c1.854 0 3.32.38 4.4 1.14 1.094.76 1.647 1.873 1.66 3.34a3.89 3.89 0 0 1-.72 2.26c-.466.68-1.14 1.207-2.02 1.58l2.62 3.96Zm-6.38-4.66h.86c.76 0 1.367-.233 1.82-.7.467-.48.7-1.18.7-2.1 0-1.093-.32-1.967-.96-2.62-.626-.653-1.353-.98-2.18-.98h-.68c-.453 0-.68.3-.68.9v4.16c0 .48.087.827.26 1.04.187.2.474.3.86.3Zm15.985 3.54c.12-.16.267-.213.44-.16.173.053.253.18.24.38-.067.693-.467 1.373-1.2 2.04-.733.653-1.687.98-2.86.98-1.413 0-2.573-.467-3.48-1.4-.907-.933-1.36-2.16-1.36-3.68 0-1.427.473-2.6 1.42-3.52.947-.933 2.087-1.4 3.42-1.4 1.213 0 2.147.287 2.8.86s.98 1.233.98 1.98c0 .613-.293 1.053-.88 1.32l-4.44 2.02c.547 1.16 1.427 1.74 2.64 1.74.507 0 .96-.107 1.36-.32.413-.227.72-.507.92-.84Zm-3.74-5.88c-.52 0-.933.253-1.24.76-.307.493-.46 1.127-.46 1.9 0 .653.067 1.227.2 1.72l2.58-1.3c.347-.173.52-.487.52-.94 0-.453-.147-.92-.44-1.4-.293-.493-.68-.74-1.16-.74Zm10.404 9.12c-1.48 0-2.713-.493-3.7-1.48-.973-.987-1.46-2.167-1.46-3.54 0-1.493.487-2.693 1.46-3.6.987-.907 2.18-1.367 3.58-1.38 1.147-.013 2.12.253 2.92.8.813.547 1.22 1.213 1.22 2 0 .293-.1.54-.3.74-.2.187-.513.273-.94.26-.32-.013-.6-.127-.84-.34-.24-.213-.44-.46-.6-.74-.147-.28-.3-.56-.46-.84-.16-.28-.36-.513-.6-.7-.24-.2-.52-.3-.84-.3-.56 0-1.013.253-1.36.76-.333.507-.5 1.14-.5 1.9 0 1.333.307 2.4.92 3.2.627.8 1.453 1.2 2.48 1.2 1.053 0 1.853-.467 2.4-1.4a.412.412 0 0 1 .28-.18c.12-.027.22 0 .3.08.093.067.133.167.12.3-.067.893-.46 1.66-1.18 2.3-.707.64-1.673.96-2.9.96Zm8.857-11.7c-.346.32-.813.48-1.4.48-.586 0-1.066-.16-1.44-.48-.36-.333-.54-.76-.54-1.28 0-.507.18-.92.54-1.24.374-.333.854-.5 1.44-.5.587 0 1.054.167 1.4.5.36.32.54.733.54 1.24 0 .52-.18.947-.54 1.28Zm-3.22 11.5c-.293 0-.44-.113-.44-.34v-.08c0-.133.127-.34.38-.62.254-.28.38-.58.38-.9v-4.52c0-.333-.126-.647-.38-.94-.253-.293-.38-.493-.38-.6v-.06c0-.133.14-.273.42-.42l2.5-1.24c.254-.107.454-.113.6-.02.147.08.22.22.22.42v7.38c0 .32.14.62.42.9.28.28.42.487.42.62v.08c0 .227-.153.34-.46.34h-3.68Zm11.182-9.8c1.253 0 2.347.433 3.28 1.3.933.867 1.4 2.047 1.4 3.54 0 1.507-.46 2.747-1.38 3.72-.907.96-2 1.44-3.28 1.44-.933 0-1.713-.26-2.34-.78v2.98c0 .32.14.62.42.9.28.28.42.487.42.62V30c0 .227-.153.34-.46.34h-3.62c-.307 0-.46-.113-.46-.34v-.08c0-.133.127-.34.38-.62.267-.28.4-.58.4-.9v-9c0-.293-.153-.56-.46-.8-.307-.253-.46-.453-.46-.6v-.1c0-.187.133-.347.4-.48l2.24-1.1c.507-.253.76-.133.76.36l-.02.84c.56-.88 1.487-1.32 2.78-1.32Zm-.28 9.14c.64 0 1.133-.267 1.48-.8.36-.533.54-1.3.54-2.3 0-1.36-.22-2.56-.66-3.6-.44-1.053-1.033-1.58-1.78-1.58a1.48 1.48 0 0 0-1.08.46c-.307.293-.487.68-.54 1.16v3.82c0 .773.207 1.44.62 2 .413.56.887.84 1.42.84Zm14.258-2.38c.12-.16.267-.213.44-.16.173.053.253.18.24.38-.067.693-.467 1.373-1.2 2.04-.733.653-1.687.98-2.86.98-1.413 0-2.573-.467-3.48-1.4-.907-.933-1.36-2.16-1.36-3.68 0-1.427.473-2.6 1.42-3.52.947-.933 2.087-1.4 3.42-1.4 1.213 0 2.147.287 2.8.86s.98 1.233.98 1.98c0 .613-.293 1.053-.88 1.32l-4.44 2.02c.547 1.16 1.427 1.74 2.64 1.74.507 0 .96-.107 1.36-.32.413-.227.72-.507.92-.84Zm-3.74-5.88c-.52 0-.933.253-1.24.76-.307.493-.46 1.127-.46 1.9 0 .653.067 1.227.2 1.72l2.58-1.3c.347-.173.52-.487.52-.94 0-.453-.147-.92-.44-1.4-.293-.493-.68-.74-1.16-.74ZM185.003 26c-.307 0-.46-.113-.46-.34v-.06c0-.133.126-.34.38-.62.266-.293.4-.593.4-.9V13.72c0-.32-.134-.62-.4-.9-.254-.28-.38-.487-.38-.62v-.08c0-.213.146-.32.44-.32h9.06c.36 0 .566.193.62.58l.48 2.34c.066.347-.074.52-.42.52h-.1c-.2 0-.42-.113-.66-.34a6.6 6.6 0 0 1-.62-.76c-.174-.28-.4-.533-.68-.76-.28-.24-.567-.36-.86-.36h-2.64c-.52 0-.78.28-.78.84v4.88h2.68c.186 0 .36-.073.52-.22.173-.16.306-.333.4-.52.093-.187.2-.353.32-.5.12-.16.24-.24.36-.24h.16c.226 0 .34.147.34.44v3.22c0 .28-.114.42-.34.42h-.16c-.12 0-.24-.073-.36-.22a2.987 2.987 0 0 1-.32-.48 1.687 1.687 0 0 0-.4-.48.758.758 0 0 0-.52-.22h-2.68v4.14c0 .307.14.607.42.9.293.28.44.487.44.62v.06c0 .227-.16.34-.48.34h-3.76Zm14.521-11.5c-.346.32-.813.48-1.4.48-.586 0-1.066-.16-1.44-.48-.36-.333-.54-.76-.54-1.28 0-.507.18-.92.54-1.24.374-.333.854-.5 1.44-.5.587 0 1.054.167 1.4.5.36.32.54.733.54 1.24 0 .52-.18.947-.54 1.28Zm-3.22 11.5c-.293 0-.44-.113-.44-.34v-.08c0-.133.127-.34.38-.62.254-.28.38-.58.38-.9v-4.52c0-.333-.126-.647-.38-.94-.253-.293-.38-.493-.38-.6v-.06c0-.133.14-.273.42-.42l2.5-1.24c.254-.107.454-.113.6-.02.147.08.22.22.22.42v7.38c0 .32.14.62.42.9.28.28.42.487.42.62v.08c0 .227-.153.34-.46.34h-3.68Zm15.662-1.94c.027.32.153.62.38.9s.34.493.34.64v.08c0 .227-.153.34-.46.34h-3.46c-.307 0-.46-.113-.46-.34v-.08c0-.133.12-.34.36-.62.253-.28.373-.587.36-.92l-.2-3.7c-.093-2.013-.673-3.02-1.74-3.02-.533 0-.953.2-1.26.6-.293.4-.44.933-.44 1.6v4.54c0 .32.14.62.42.9.293.28.44.487.44.62v.08c0 .227-.153.34-.46.34h-3.72c-.307 0-.46-.113-.46-.34v-.08c0-.133.14-.34.42-.62.293-.28.44-.58.44-.9v-4.66a.95.95 0 0 0-.16-.54.833.833 0 0 0-.34-.34 2.245 2.245 0 0 1-.34-.28.49.49 0 0 1-.14-.32v-.08c0-.147.133-.287.4-.42l2.38-1.16c.227-.107.393-.113.5-.02.12.08.18.227.18.44v1.12c.573-1.08 1.56-1.62 2.96-1.62 1.013 0 1.873.34 2.58 1.02.72.68 1.133 1.76 1.24 3.24l.24 3.6Zm11.431.02c0 .307.133.607.4.9.267.28.4.487.4.62v.06c0 .227-.133.34-.4.34h-2.48c-.307 0-.46-.147-.46-.44l-.04-.44c-.613.72-1.48 1.08-2.6 1.08-1.293 0-2.4-.447-3.32-1.34-.92-.907-1.38-2.133-1.38-3.68 0-1.453.46-2.647 1.38-3.58.92-.933 2.033-1.4 3.34-1.4.933 0 1.713.26 2.34.78v-3.2a.895.895 0 0 0-.26-.66 3.05 3.05 0 0 0-.5-.44c-.16-.12-.24-.247-.24-.38v-.06c0-.227.14-.38.42-.46l2.62-.8c.52-.173.78-.04.78.4v12.7Zm-4.52 1.26c.453 0 .847-.187 1.18-.56.347-.387.52-.913.52-1.58v-3.52c0-.653-.22-1.253-.66-1.8-.44-.547-.947-.82-1.52-.82-.613 0-1.1.26-1.46.78-.36.507-.547 1.227-.56 2.16-.027.76.047 1.54.22 2.34.187.8.48 1.5.88 2.1.413.587.88.887 1.4.9Zm14.52-2.38c.12-.16.267-.213.44-.16.174.053.254.18.24.38-.066.693-.466 1.373-1.2 2.04-.733.653-1.686.98-2.86.98-1.413 0-2.573-.467-3.48-1.4-.906-.933-1.36-2.16-1.36-3.68 0-1.427.474-2.6 1.42-3.52.947-.933 2.087-1.4 3.42-1.4 1.214 0 2.147.287 2.8.86.654.573.98 1.233.98 1.98 0 .613-.293 1.053-.88 1.32l-4.44 2.02c.547 1.16 1.427 1.74 2.64 1.74.507 0 .96-.107 1.36-.32.414-.227.72-.507.92-.84Zm-3.74-5.88c-.52 0-.933.253-1.24.76-.306.493-.46 1.127-.46 1.9 0 .653.067 1.227.2 1.72l2.58-1.3c.347-.173.52-.487.52-.94 0-.453-.146-.92-.44-1.4-.293-.493-.68-.74-1.16-.74Zm11.545-.88c.573 0 1.02.173 1.34.52.333.333.5.767.5 1.3 0 1.053-.427 1.58-1.28 1.58-.347 0-.62-.087-.82-.26a1.148 1.148 0 0 1-.34-.6 1.489 1.489 0 0 0-.24-.58c-.12-.187-.3-.28-.54-.28-.36 0-.627.213-.8.64-.174.427-.26.947-.26 1.56v4c0 .24.08.453.24.64.173.173.34.327.5.46.173.133.26.267.26.4v.08c0 .227-.147.34-.44.34h-3.7c-.307 0-.46-.113-.46-.34v-.08c0-.133.126-.34.38-.62.266-.28.4-.573.4-.88V19.4c0-.32-.154-.607-.46-.86-.307-.253-.46-.447-.46-.58v-.08c0-.187.14-.347.42-.48l2.4-1.12c.426-.2.64-.067.64.4v1.5c.453-1.32 1.36-1.98 2.72-1.98Z"/></symbol><symbol viewBox="0 0 315 391" id="pattern-fork" xmlns="http://www.w3.org/2000/svg"><path d="m257.302 141.007 47.226-94.376-9.332-6.115-54.436 89.047a5.565 5.565 0 0 1-7.789 1.741l-1.776-1.169a5.558 5.558 0 0 1-1.602-7.689l57.151-87.461-8.206-5.328-57.544 88.062a5.56 5.56 0 1 1-9.31-6.083l57.552-88.075-9.041-5.89-57.572 88.053a5.554 5.554 0 0 1-7.693 1.607l-1.533-1.002a5.557 5.557 0 0 1-1.513-7.837l60.458-85.995-8.516-5.565-64.756 76.485s-2.3 2.968-3.078 4.159c-8.39 12.839-8.775 27.889-5.515 41.759 2.706 11.501 6.389 20.601 2.197 32.177-8.462 18.019-29.266 37.8-41.424 52.966-42.922 53.524-84.163 121.353-84.163 121.353l.036.024c-.08.094-.178.193-.253.307-5.78 8.846-2.166 21.532 6.676 27.345l.139.09c8.87 5.796 22.14 4.126 27.928-4.733.075-.114.138-.236.18-.354l.036.024s56.087-86.227 77.344-125.81c8.952-16.669 18.34-42.751 30.865-57.978 9.08-7.197 21.015-9.413 32.064-11.942 13.299-3.042 24.997-7.85 33.443-19.186.549-.723 1.757-2.611 1.757-2.611Z"/><path d="M16.766 166.531c37.128-31.793 95.182-23.249 111.544 26.935 6.796 20.869 2.83 44.092 11.857 64.461 11.109 25.062 36.526 39.945 61.557 23.831 8.822-5.691 1.038-20.073-7.894-14.382-45.414 28.964-43.228-58.346-49.911-78.923-5.82-17.922-17.095-33.059-32.526-43.772-33.453-23.213-74.464-17.051-104.296 8.608-7.963 6.845 1.64 20.12 9.669 13.242Z"/></symbol><symbol viewBox="0 0 339 339" id="pattern-knife" xmlns="http://www.w3.org/2000/svg"><path d="M283.393 13.59s-69.035 69.035-78.007 78.063C197.145 99.839.279 297.225.279 297.225l-.017.016S62.17 317.726 215.72 164.153c-25.758-45.751 15.332-53.19 30.536-59.981 24.873-11.114 63.832-63.965 63.832-63.965l-.105-.072c.116-.06.21-.1.31-.21 7.417-7.34 7.417-19.305.011-26.6-7.311-7.345-19.311-7.356-26.611 0-.094.038-.205.149-.199.243l-.1.022Z"/><path d="M101.598 160.566c26.777-11.216 28.507 32.541 35.678 45.197 3.779 6.664 9.208 13.539 16.706 16.244 26.102 9.425 66.796-42.146 76.59.955 4.901 21.582-1.184 43.879 18.78 59.935 13.652 10.983 30.6 10.807 44.146.605 5.446-4.104-1.435-12.18-6.836-8.059-21.064 16.086-38.987-11.267-43.648-27.683-2.333-8.213-1.061-16.369-1.866-24.648-.736-7.589-1.606-13.969-6.499-20.125-9.719-12.228-26.991-12.97-40.442-7.328-3.282 1.373-6.144 3.672-9.318 5.208-8.505 4.112-25.485 9.818-34.935 5.047-8.519-4.296-11.058-35.22-17.096-43.97-8.26-11.969-20.908-17.155-34.375-11.475-6.222 2.62-3.172 12.728 3.115 10.097Z"/></symbol><symbol viewBox="0 0 1440 616" id="pattern-squiggle-1" xmlns="http://www.w3.org/2000/svg"><g clip-path="url(#qa)"><path d="M-132.333 886.836c-33.909-110.402-67.008-229.564-38.542-345.161 35.02-142.326 149.005-219.257 293.325-212.932 212.829 9.351 383.197 173.418 582.749 231.651 414.671 121.04 698.261-201.37 783.701-576.929 5.26-23.105-30.21-33.776-35.51-10.49-53.05 233.245-174.62 474.699-416.85 555.019-256.308 84.97-473.205-77.177-694.696-177.9-136.599-62.132-316.78-96.086-443.616 7.114-163.319 132.877-120.221 364.579-66.462 538.732 7.027 22.711 42.909 13.698 35.901-9.104Z" opacity=".4"/></g><defs><clipPath id="qa"><path d="M0 0h1440v616H0z"/></clipPath></defs></symbol><symbol viewBox="0 0 201 144" id="pattern-squiggle-2" xmlns="http://www.w3.org/2000/svg"><path d="M6.6 12.566c26.777-11.217 28.507 32.54 35.677 45.197 3.78 6.664 9.209 13.54 16.707 16.244 26.101 9.425 66.795-42.147 76.589.955 4.901 21.581-1.184 43.878 18.78 59.935 13.652 10.983 30.6 10.806 44.146.604 5.446-4.103-1.435-12.18-6.835-8.059-21.065 16.087-38.987-11.267-43.649-27.683-2.333-8.212-1.061-16.368-1.865-24.647-.737-7.589-1.606-13.97-6.5-20.125-9.719-12.229-26.991-12.97-40.442-7.328-3.281 1.372-6.144 3.672-9.318 5.208-8.505 4.111-25.485 9.817-34.935 5.047-8.518-4.296-11.058-35.22-17.096-43.97C29.6 1.973 16.951-3.213 3.484 2.468-2.737 5.089.312 15.197 6.599 12.566Z"/></symbol></svg>